# xmcd
#
# Track frame offsets:
#	182
#	22737
#	41890
#	61760
#	74397
#	85937
#	107927
#	129190
#	149152
#	164692
#	182220
#	197825
#	215897
#	231240
#	244565
#	260115
#	282477
#	295240
#
# Disc length: 4157 seconds
#
# Revision: 1
# Processed by: cddbd v1.4PL0 Copyright (c) Steve Scherf et al.
# Submitted via: audiograbber 1.82.02
#
DISCID=23103b12
DTITLE=NFS - Country Singles for Radio
DYEAR=1900
DGENRE=
TTITLE0=The Seekers - The Bush Girl
TTITLE1=Lyn Bowtell - I can Fly
TTITLE2=The Mavericks - Dance The Right Way
TTITLE3=Felicity - Sugar Town
TTITLE4=Keith Glass - What This Baby Will Do
TTITLE5=Anita Cochran - What If I Said
TTITLE6=Lyndsay Hammond - Red Dust Trials
TTITLE7=Col J Finley - Paradise
TTITLE8=Fandango - Too Hot To Handle
TTITLE9=Bryan White - One Small Miracle
TTITLE10=Dale Juner - Its A Long Way To Darwin
TTITLE11=Kris Tyler - Keeping Your Kisses
TTITLE12=Dave Reynolds - The Old Bloke
TTITLE13=Ron Odgers - Sittin, Sippin Fishin
TTITLE14=Barbera Thompson - You Belong To Me
TTITLE15=Maurice Hardy - We Love You Baby Ben
TTITLE16=Steve Lowry - Damned If You Do, Damned If You Dont
TTITLE17=Whiskytown - 16 Days
EXTD=
EXTT0=
EXTT1=
EXTT2=
EXTT3=
EXTT4=
EXTT5=
EXTT6=
EXTT7=
EXTT8=
EXTT9=
EXTT10=
EXTT11=
EXTT12=
EXTT13=
EXTT14=
EXTT15=
EXTT16=
EXTT17=
PLAYORDER=
